HIERARCHY
ROOT Hips
{
	OFFSET 0.00 0.00 0.00
	CHANNELS 6 Xposition Yposition Zposition Xrotation Yrotation Zrotation
	JOINT Spine
	{
		OFFSET 0.00000 7.50895 0.00000
		CHANNELS 3 Xrotation Yrotation Zrotation
		JOINT Head
		{
			OFFSET 0.00000 13.86115 0.00000
			CHANNELS 3 Xrotation Yrotation Zrotation
			End Site
			{
				OFFSET 0.00000 4.52755 0.00000
			}
		}
		JOINT LeftShoulder
		{
			OFFSET 0.00000 8.20478 0.00000
			CHANNELS 3 Xrotation Yrotation Zrotation
			JOINT LeftArm
			{
				OFFSET 6.63596 0.00000 0.00000
				CHANNELS 3 Xrotation Yrotation Zrotation
				JOINT LeftForeArm
				{
					OFFSET 10.27422 0.00000 0.00000
					CHANNELS 3 Yrotation Zrotation Xrotation
					JOINT LeftHand
					{
						OFFSET 8.52215 0.00000 0.00000
						CHANNELS 3 Xrotation Yrotation Zrotation
						JOINT LeftHandThumb1
						{
							OFFSET 0.00000 0.00000 0.00000
							CHANNELS 3 Xrotation Zrotation Yrotation
							End Site
							{
								OFFSET 0.00000 0.00000 3.93700
							}
						}
						End Site
						{
							OFFSET 3.93700 0.00000 0.00000
						}
					}
				}
			}
		}
		JOINT RightShoulder
		{
			OFFSET 0.00000 8.20478 0.00000
			CHANNELS 3 Xrotation Yrotation Zrotation
			JOINT RightArm
			{
				OFFSET -6.63596 0.00000 0.00000
				CHANNELS 3 Xrotation Yrotation Zrotation
				JOINT RightForeArm
				{
					OFFSET -10.27422 0.00000 0.00000
					CHANNELS 3 Yrotation Zrotation Xrotation
					JOINT RightHand
					{
						OFFSET -8.52215 0.00000 0.00000
						CHANNELS 3 Xrotation Yrotation Zrotation
						JOINT RightHandThumb1
						{
							OFFSET 0.00000 0.00000 0.00000
							CHANNELS 3 Xrotation Zrotation Yrotation
							End Site
							{
								OFFSET 0.00000 0.00000 3.93700
							}
						}
						End Site
						{
							OFFSET -3.93700 0.00000 0.00000
						}
					}
				}
			}
		}
	}
	JOINT LeftUpLeg
	{
		OFFSET 3.00056 0.00000 0.00000
		CHANNELS 3 Xrotation Yrotation Zrotation
		JOINT LeftLeg
		{
			OFFSET 0.00000 -16.49085 0.00000
			CHANNELS 3 Xrotation Yrotation Zrotation
			JOINT LeftFoot
			{
				OFFSET 0.00000 -14.55658 0.00000
				CHANNELS 3 Xrotation Yrotation Zrotation
				JOINT LeftToeBase
				{
					OFFSET 0.00000 -1.25038 4.66650
					CHANNELS 3 Xrotation Yrotation Zrotation
					End Site
					{
						OFFSET 0.00000 0.00000 2.95275
					}
				}
			}
		}
	}
	JOINT RightUpLeg
	{
		OFFSET -3.00056 0.00000 0.00000
		CHANNELS 3 Xrotation Yrotation Zrotation
		JOINT RightLeg
		{
			OFFSET 0.00000 -16.49085 0.00000
			CHANNELS 3 Xrotation Yrotation Zrotation
			JOINT RightFoot
			{
				OFFSET 0.00000 -14.55658 0.00000
				CHANNELS 3 Xrotation Yrotation Zrotation
				JOINT RightToeBase
				{
					OFFSET 0.00000 -1.25038 4.66650
					CHANNELS 3 Xrotation Yrotation Zrotation
					End Site
					{
						OFFSET 0.00000 0.00000 2.95275
					}
				}
			}
		}
	}
}
MOTION
Frames: 9
Frame Time: 0.008333
 1.5260 32.8797 -4.1459 11.6828 1.2372 -2.2946 -11.5231 5.8154 3.0462 -7.6077 -8.0774 6.7924 15.4025 23.0900 27.2235 -33.0415 -5.3436 -29.8893 -14.3409 -0.0000 9.8207 0.4982 30.0659 -0.9944 33.1476 -0.0000 26.2537 -20.3221 -5.9704 -38.4800 -2.6542 -13.4867 33.0588 17.7255 -0.0000 32.1649 1.6264 -11.8847 7.8502 32.8623 0.0000 -24.3270 -9.3562 16.7394 3.6627 3.2991 0.0000 0.0000 -9.8928 4.6065 -17.5396 1.9211 -0.0000 0.0000 -7.7566 -4.0074 2.1668 1.6725 -0.0000 0.0000 -9.0365 -2.3350 -6.6623 0.8265 0.0000 0.0000
 1.5264 32.8797 -4.1457 11.6726 1.2345 -2.2925 -11.4970 5.8199 3.0414 -7.5881 -8.1083 6.8070 15.4205 23.0994 27.2129 -33.1006 -5.3366 -29.8948 -14.3363 -0.0000 9.8021 0.5200 30.0492 -1.0383 33.1476 -0.0000 26.2537 -20.3455 -5.9732 -38.4870 -2.6568 -13.4961 33.0563 17.7315 -0.0000 32.1734 1.6189 -11.8677 7.8251 32.8623 0.0000 -24.3270 -9.3086 16.6251 3.6474 3.2420 0.0000 0.0000 -9.8718 4.7177 -17.5011 1.9898 -0.0000 -0.0000 -7.8110 -4.1916 2.1587 1.8189 -0.0000 0.0000 -9.1068 -2.1524 -6.6686 0.8288 -0.0000 -0.0000
 1.5266 32.8796 -4.1444 11.6671 1.2326 -2.2811 -11.4845 5.8110 3.0206 -7.5479 -8.1352 6.8285 15.3923 23.0869 27.2259 -33.0795 -5.3190 -29.8904 -14.3548 -0.0000 9.7907 0.5105 30.0501 -1.0195 33.1476 -0.0000 26.2537 -20.3527 -5.9712 -38.4866 -2.6618 -13.4930 33.0653 17.7416 -0.0000 32.1793 1.6343 -11.9976 7.8156 32.8623 0.0000 -24.3270 -9.2768 16.5696 3.6285 3.2112 -0.0000 0.0000 -9.8574 4.7819 -17.5243 1.9625 -0.0000 -0.0000 -7.8606 -4.3758 2.1418 1.9483 -0.0000 0.0000 -9.1727 -1.9801 -6.6393 0.7637 -0.0000 0.0000
 1.5259 32.8796 -4.1436 11.6670 1.2241 -2.2758 -11.4813 5.8174 3.0061 -7.4986 -8.1511 6.8563 15.3912 23.0834 27.2336 -33.0946 -5.3145 -29.8892 -14.3594 -0.0000 9.7949 0.5127 30.0468 -1.0239 33.1476 -0.0000 26.2537 -20.3710 -5.9633 -38.4812 -2.6634 -13.5141 33.0533 17.7581 -0.0000 32.2001 1.6260 -11.9164 7.8276 32.8623 0.0000 -24.3270 -9.2408 16.4815 3.6149 3.1559 -0.0000 -0.0000 -9.8418 4.8691 -17.4706 2.0315 0.0000 -0.0000 -7.9100 -4.5222 2.1347 2.0635 0.0000 0.0000 -9.2292 -1.8279 -6.6426 0.8011 -0.0000 -0.0000
 1.5190 32.8787 -4.1388 11.6321 1.2089 -2.3138 -11.4443 5.8169 3.0289 -7.4416 -8.1849 6.9096 15.3759 23.0864 27.2423 -33.0943 -5.3181 -29.8782 -14.3776 -0.0000 9.8032 0.5335 30.0617 -1.0649 33.1476 -0.0000 26.2537 -20.3809 -5.9631 -38.4691 -2.6649 -13.5170 33.0520 17.7723 -0.0000 32.1971 1.6267 -11.9451 7.8127 32.8623 0.0000 -24.3270 -9.4130 17.0894 3.7352 3.4704 0.0000 -0.0000 -9.9911 4.2965 -17.4998 1.9272 0.0000 -0.0000 -7.9119 -4.7032 2.1851 2.1767 0.0000 0.0000 -9.2582 -1.6626 -6.6398 0.7240 0.0000 -0.0000
 1.5190 32.8786 -4.1380 11.6275 1.1988 -2.3053 -11.4347 5.8215 3.0146 -7.3844 -8.2108 6.9232 15.3478 23.0691 27.2524 -33.0867 -5.3084 -29.8725 -14.3770 -0.0000 9.8274 0.5361 30.0140 -1.0717 33.1476 -0.0000 26.2537 -20.3886 -5.9592 -38.4717 -2.6642 -13.5246 33.0589 17.7935 -0.0000 32.2346 1.6250 -11.9614 7.7944 32.8623 0.0000 -24.3270 -9.3795 17.0322 3.7198 3.4302 -0.0000 -0.0000 -9.9775 4.3770 -17.5192 1.9371 -0.0000 -0.0000 -7.9684 -4.8566 2.1693 2.3292 0.0000 -0.0000 -9.3370 -1.5342 -6.7115 0.6881 0.0000 0.0000
 1.5173 32.8784 -4.1362 11.6201 1.1974 -2.3044 -11.4261 5.8246 2.9944 -7.3154 -8.2377 6.9808 15.3419 23.0596 27.2682 -33.0740 -5.3119 -29.8637 -14.3931 -0.0000 9.8268 0.5189 30.0449 -1.0363 33.1476 -0.0000 26.2537 -20.3864 -5.9684 -38.4576 -2.6574 -13.5226 33.0582 17.8030 -0.0000 32.2334 1.6135 -11.9543 7.7442 32.8623 0.0000 -24.3270 -9.3422 16.9447 3.7129 3.3902 0.0000 -0.0000 -9.9553 4.4542 -17.5079 1.9001 0.0000 -0.0000 -8.0148 -5.0799 2.1675 2.4529 0.0000 -0.0000 -9.4026 -1.3015 -6.6156 0.7265 0.0000 0.0000
 1.5166 32.8783 -4.1355 11.6213 1.1957 -2.2949 -11.4238 5.8260 2.9724 -7.2537 -8.2701 7.0064 15.3439 23.0567 27.2707 -33.1368 -5.2611 -29.8577 -14.4562 -0.0000 9.7910 0.5647 30.0750 -1.1267 33.1476 -0.0000 26.2537 -20.3980 -5.9691 -38.4590 -2.6591 -13.5334 33.0661 17.8246 -0.0000 32.2774 1.6089 -11.9761 7.7089 32.8623 0.0000 -24.3270 -9.3098 16.8497 3.6953 3.3460 0.0000 -0.0000 -9.9387 4.5529 -17.5170 1.9360 -0.0000 -0.0000 -8.0749 -5.2453 2.1522 2.5885 -0.0000 -0.0000 -9.4742 -1.1358 -6.6076 0.7400 0.0000 0.0000
 1.5159 32.8779 -4.1336 11.6119 1.1889 -2.2909 -11.4092 5.8308 2.9572 -7.1897 -8.3080 7.0517 15.3417 23.0545 27.2689 -33.1281 -5.2603 -29.8434 -14.4920 -0.0000 9.7607 0.5387 30.1130 -1.0736 33.1476 -0.0000 26.2537 -20.4108 -5.9626 -38.4546 -2.6496 -13.5401 33.0682 17.8341 -0.0000 32.2923 1.6037 -11.9861 7.6781 32.8623 0.0000 -24.3270 -9.2769 16.7920 3.6879 3.3174 -0.0000 0.0000 -9.9364 4.6165 -17.5095 1.9355 0.0000 0.0000 -8.1231 -5.4166 2.1424 2.7252 -0.0000 0.0000 -9.5451 -0.9632 -6.5623 0.7526 0.0000 0.0000
